<svg width="50" height="50" viewBox="0 0 50 50" fill="none" xmlns="http://www.w3.org/2000/svg">
<g clip-path="url(#clip0_1368_178)">
<path d="M48.9453 7.43175C50.0293 6.71886 50.332 5.27355 49.6191 4.18957C48.9062 3.10558 47.4609 2.80285 46.377 3.51574L36.1523 10.2052C32.793 9.63878 29.0039 9.37511 25 9.37511C11.1914 9.37511 0 12.5001 0 20.3126V35.9376C0 38.9943 2.67578 41.6798 7.03125 43.6232V33.5939C7.03125 32.295 8.07617 31.2501 9.375 31.2501C10.6738 31.2501 11.7188 32.295 11.7188 33.5939V45.254C14.9414 46.1232 18.6621 46.67 22.6562 46.8263V36.7189C22.6562 35.42 23.7012 34.3751 25 34.3751C26.2988 34.3751 27.3438 35.42 27.3438 36.7189V46.8263C31.3379 46.67 35.0586 46.1232 38.2812 45.254V33.5939C38.2812 32.295 39.3262 31.2501 40.625 31.2501C41.9238 31.2501 42.9688 32.295 42.9688 33.5939V43.6232C47.3242 41.6798 50 38.9943 50 35.9376V20.3126C50 16.2989 47.0508 13.5255 42.3047 11.7775L48.9355 7.43175H48.9453ZM30.0195 14.2189L23.7109 18.3497C22.627 19.0626 22.3242 20.5079 23.0371 21.5919C23.75 22.6759 25.1953 22.9786 26.2793 22.2657L37.1289 15.1564C38.5645 15.4689 39.8535 15.84 40.9766 16.2794C44.7656 17.754 45.3125 19.2775 45.3125 20.3126C45.3125 20.3907 45.0488 21.9923 40.8203 23.8185C37.0215 25.4591 31.4453 26.5626 25 26.5626C18.5547 26.5626 12.9785 25.4591 9.17969 23.8185C4.95117 21.9923 4.6875 20.3907 4.6875 20.3126C4.6875 19.2775 5.23438 17.754 9.02344 16.2794C12.7539 14.8341 18.3398 14.0626 25 14.0626C26.7578 14.0626 28.4277 14.1114 30.0195 14.2189Z" fill="#D82424"/>
</g>
<defs>
<clipPath id="clip0_1368_178">
<rect width="50" height="50" fill="white"/>
</clipPath>
</defs>
</svg>
