<svg width="50" height="50" viewBox="0 0 50 50" fill="none" xmlns="http://www.w3.org/2000/svg">
<mask id="mask0_1397_229" style="mask-type:luminance" maskUnits="userSpaceOnUse" x="3" y="3" width="44" height="43">
<path fill-rule="evenodd" clip-rule="evenodd" d="M25 44.7918H31.2031C31.2892 41.9404 31.7073 40.3727 32.4573 40.0887C40.2802 37.12 45.8333 29.6189 45.8333 20.8335H4.16663C4.16663 29.4283 9.48225 36.795 17.0385 39.8897C17.8281 40.2134 18.418 41.8474 18.8083 44.7918H25Z" fill="white" stroke="white" stroke-width="2" stroke-linejoin="round"/>
<path d="M15.0448 28.1492C15.4198 29.3853 15.9153 30.4068 16.5313 31.2138C17.1736 32.0402 17.9232 32.7772 18.7604 33.4054" stroke="black" stroke-width="2" stroke-linecap="round"/>
<path d="M26.2645 20.8605C28.5748 16.1061 30.8741 11.3464 33.1624 6.58136C34.2562 4.27928 36.4749 3.72511 38.5218 4.60011C40.5687 5.47511 41.3968 7.9772 40.5374 9.72199C40.0062 10.7998 38.2041 14.505 35.1312 20.8376" stroke="white" stroke-width="2" stroke-linecap="round"/>
</mask>
<g mask="url(#mask0_1397_229)">
<path d="M0 0H50V50H0V0Z" fill="#D82424"/>
</g>
</svg>
