<svg width="50" height="50" viewBox="0 0 50 50" fill="none" xmlns="http://www.w3.org/2000/svg">
<path d="M41.6667 35.4167C42.7717 35.4167 43.8315 34.9778 44.6129 34.1964C45.3943 33.415 45.8333 32.3552 45.8333 31.2501V8.33342C45.8333 7.22835 45.3943 6.16854 44.6129 5.38714C43.8315 4.60573 42.7717 4.16675 41.6667 4.16675H19.7083C20.4375 5.43758 20.8333 6.87508 20.8333 8.33342H41.6667V31.2501H22.9167V35.4167M31.25 14.5834V18.7501H18.75V45.8334H14.5833V33.3334H10.4167V45.8334H6.25V29.1667H3.125V18.7501C3.125 17.645 3.56399 16.5852 4.34539 15.8038C5.12679 15.0224 6.1866 14.5834 7.29167 14.5834H31.25ZM16.6667 8.33342C16.6667 9.43848 16.2277 10.4983 15.4463 11.2797C14.6649 12.0611 13.6051 12.5001 12.5 12.5001C11.3949 12.5001 10.3351 12.0611 9.55372 11.2797C8.77232 10.4983 8.33333 9.43848 8.33333 8.33342C8.33333 7.22835 8.77232 6.16854 9.55372 5.38714C10.3351 4.60573 11.3949 4.16675 12.5 4.16675C13.6051 4.16675 14.6649 4.60573 15.4463 5.38714C16.2277 6.16854 16.6667 7.22835 16.6667 8.33342Z" fill="#D82424"/>
</svg>
