<svg width="22" height="22" viewBox="0 0 22 22" fill="none" xmlns="http://www.w3.org/2000/svg">
<path d="M1.7333 0.163208L1.07129 3.23469L0.26799 1.38571C0.105662 2.02021 0.0978335 2.73346 0.158865 3.37297C0.507005 6.87969 3.47902 10.9928 7.41652 14.4436C8.13732 13.6963 8.84096 12.9325 9.51572 12.1593C9.83541 11.7929 10.1485 11.4244 10.4541 11.0545C7.6861 7.62196 5.57649 4.09761 5.03626 0.998708C4.84749 0.47802 4.30285 0.299895 3.83644 0.184958L4.37691 1.11627L2.90949 0.0641609C2.51382 0.0553016 2.08365 0.0924734 1.7333 0.163208ZM19.0809 0.0644422C18.9441 0.713286 18.812 1.36218 18.3757 2.01102C18.368 1.35847 18.2776 0.74727 18.0074 0.225927C17.6108 0.349817 17.0453 0.577208 16.9625 0.998708C16.3347 4.59983 13.5886 8.77555 10.1515 12.714C7.10124 16.2093 3.49927 19.4974 0.294146 21.9386C4.0868 21.3748 8.94793 18.9423 13.0702 15.7002C14.375 14.674 15.6044 13.5666 16.7077 12.4177C16.3924 12.4704 16.0694 12.4942 15.7566 12.5007L18.4963 10.3761C20.3704 8.01186 21.6215 5.57301 21.8399 3.37297C21.8828 2.9413 21.904 2.30755 21.8098 1.74149C21.7156 1.17543 21.5057 0.713473 21.1886 0.505348C20.7818 0.238489 20.062 0.0755047 19.3334 0.0623797C19.2492 0.0607548 19.165 0.0614426 19.0809 0.0644422ZM14.5316 15.6006C14.2222 15.8596 13.9089 16.1138 13.5918 16.3633C12.9933 16.834 12.3819 17.2878 11.758 17.7243C12.8326 18.422 13.9277 19.056 15.0164 19.611C15.9218 19.719 16.827 19.829 17.7319 19.941C17.4724 20.19 17.1734 20.3574 16.844 20.4703C18.5562 21.2058 20.2131 21.7169 21.7047 21.9386C19.4012 20.1842 16.8929 17.9924 14.5316 15.6006Z" fill="#D82424"/>
</svg>
