<svg width="24" height="19" viewBox="0 0 24 19" fill="none" xmlns="http://www.w3.org/2000/svg">
<path d="M9.48 1.46868C7.78641 0.660084 5.41922 0.26399 2.25 0.249927C1.95111 0.245867 1.65809 0.333022 1.41 0.499771C1.20637 0.63741 1.03968 0.822978 0.924597 1.04015C0.809512 1.25733 0.749555 1.49946 0.750002 1.74524V15.1562C0.750002 16.0627 1.395 16.7466 2.25 16.7466C5.58141 16.7466 8.92313 17.0579 10.9247 18.9498C10.9521 18.9758 10.9865 18.9931 11.0237 18.9998C11.0608 19.0064 11.0991 19.0019 11.1338 18.9869C11.1685 18.9719 11.1979 18.9471 11.2186 18.9155C11.2393 18.8839 11.2502 18.8469 11.25 18.8091V3.00711C11.2501 2.90051 11.2272 2.79513 11.1831 2.69809C11.1389 2.60105 11.0745 2.51462 10.9941 2.44461C10.5356 2.05266 10.0263 1.72439 9.48 1.46868ZM22.59 0.498365C22.3418 0.332031 22.0488 0.245362 21.75 0.249927C18.5808 0.26399 16.2136 0.658209 14.52 1.46868C13.9737 1.72392 13.4643 2.05155 13.0055 2.44274C12.9252 2.51284 12.8609 2.59931 12.8168 2.69633C12.7728 2.79335 12.75 2.89868 12.75 3.00524V18.8082C12.75 18.8445 12.7607 18.88 12.7807 18.9102C12.8008 18.9404 12.8293 18.9641 12.8628 18.9781C12.8962 18.9922 12.9331 18.9961 12.9687 18.9893C13.0044 18.9825 13.0372 18.9653 13.0631 18.9399C14.2664 17.7446 16.3781 16.7452 21.7519 16.7457C22.1497 16.7457 22.5312 16.5877 22.8125 16.3064C23.0938 16.0251 23.2519 15.6435 23.2519 15.2457V1.74571C23.2524 1.49944 23.1923 1.25682 23.0769 1.03928C22.9615 0.821741 22.7942 0.635968 22.59 0.498365Z" fill="#D82424"/>
</svg>
